<svg xmlns="http://www.w3.org/2000/svg" version="1.1" xmlns:xlink="http://www.w3.org/1999/xlink" xmlns:svgjs="http://svgjs.dev/svgjs" width="100%" height="100%" viewBox="0 0 1000 600"><rect width="1000" height="600" x="0" y="0" fill="#d14900"/><g><rect width="333.3333333333333" height="333.3333333333333" rx="13.333333333333334" ry="13.333333333333334" y="406.08790924549106" fill="#ff8000" transform="matrix(0.32563473598305176,0,0,0.3256347359830517,0,113.49121273132646)" x="383.8656921386719"/><path d="M543.7958267515887 500.50907146274704L543.7958267515887 504.40128685379347L525.1730731113512 503.7725443675475Q524.9634922826025 505.3294305239661 524.7539114538538 509.7006878092952Q524.5443306251052 514.0719450946242 524.2149893227859 522.6048788365337Q523.9155881388592 531.1378125784431 523.5862468365399 544.3414047896083Q523.2868456526132 557.5449970007735 522.867683995116 576.8264332456497L522.867683995116 576.8264332456497L579.8137891779645 575.9581698122624L580.2329508354617 502.51505939505563L557.3886405018585 501.64679596166826L557.3886405018585 497.75458057062184L645.2628879843298 500.50907146274704L645.2628879843298 504.40128685379347L622.6281584794751 503.7725443675475Q622.5383381242972 505.03002934003945 622.3287572955485 508.3833226000179Q622.1191764667999 511.766555978389 621.8497154012658 518.3533820247753Q621.5802543357319 524.9102679527689 621.2808531518052 535.2396087982382Q620.951511849486 545.5390095253149 620.592230428774 560.718649550396Q620.232949008062 575.8683494570844 619.783847232172 596.3773305560599Q619.3646855746747 616.9162517734278 618.9455239171774 643.8623583268261L618.9455239171774 643.8623583268261L644.8437263268324 643.8623583268261L644.8437263268324 647.7545737178725L559.0652871318478 647.7545737178725L559.0652871318478 643.8623583268261L579.6042083492158 643.8623583268261L579.8137891779645 579.8803253217015L522.6581031663673 580.7186486366961Q522.4485223376187 587.335414801475 522.328761864048 594.4012827421438Q522.2389415088701 601.4372105644202 522.1191810352993 609.1917012281203Q521.9994205617287 616.9162517734278 521.8497199697654 625.5090657521228Q521.700019377802 634.0719396124248 521.5802589042314 643.8623583268261L521.5802589042314 643.8623583268261L543.2868447389134 643.8623583268261L543.2868447389134 647.7545737178725L457.26888459678736 647.7545737178725L457.26888459678736 643.8623583268261L482.1191828626992 643.8623583268261L482.7479253489451 502.51505939505563L455.80181879554675 501.64679596166826L455.80181879554675 497.75458057062184L543.7958267515887 500.50907146274704Z " fill="#fff748" transform="matrix(0.32563473598305176,0,0,0.3256347359830517,0,113.49121273132646)"/><path d="M884.1850927460455 500.3731915175374L884.1850927460455 504.0733809494516L866.4811094641177 503.4756580412193Q866.2818684947069 504.955733813985 866.0826275252962 509.11133117598087Q865.8833865558854 513.2669285379768 865.5702936039543 521.3788822925578Q865.2856636476531 529.4908360471389 864.972570695722 542.0430171200171Q864.6879407394208 554.5951981928952 864.2894588005993 572.9253673786855L864.2894588005993 572.9253673786855L918.4260764890668 572.0999405054122L918.8245584278883 502.28021222475473L897.1072927621151 501.4547853514815L897.1072927621151 497.75459591956735L980.646184936485 500.3731915175374L980.646184936485 504.0733809494516L959.1281602401226 503.4756580412193Q959.0427712532323 504.6711038576838 958.8435302838216 507.8589593682561Q958.6442893144108 511.0752778744584 958.3881223537398 517.3371369130823Q958.1319553930689 523.5705329560762 957.8473254367677 533.3902664484639Q957.5342324848366 543.1815369452213 957.1926765372752 557.6122757296866Q956.8511205897139 572.0145515185218 956.4241756552623 591.5117035251465Q956.0256937164407 611.0373185274013 955.6272117776192 636.6540145944994L955.6272117776192 636.6540145944994L980.2477029976635 636.6540145944994L980.2477029976635 640.3542040264135L898.7012205174012 640.3542040264135L898.7012205174012 636.6540145944994L918.226835519656 636.6540145944994L918.4260764890668 575.8285929329566L864.0902178311885 576.6255568105996Q863.8909768617777 582.9158788448535 863.7771248792574 589.6331458135594Q863.691735892367 596.3219497866351 863.5778839098466 603.6938656548332Q863.4640319273262 611.0373185274013 863.3217169491757 619.2061982732425Q863.1794019710251 627.3466150234538 863.0655499885047 636.6540145944994L863.0655499885047 636.6540145944994L883.7012218203338 636.6540145944994L883.7012218203338 640.3542040264135L801.9270353750305 640.3542040264135L801.9270353750305 636.6540145944994L825.5513217480209 636.6540145944994L826.1490446562532 502.28021222475473L800.5323485891552 501.4547853514815L800.5323485891552 497.75459591956735L884.1850927460455 500.3731915175374ZM1084.820748942684 603.0392167553407L1084.820748942684 603.0392167553407Q1084.820748942684 609.9272616978271 1082.458320305385 615.9044907801499Q1080.124354663716 621.8532568668427 1076.167998271131 626.8058181064816Q1072.2116418785458 631.7583793461206 1067.1736916520165 635.6008837561853Q1062.1072784298572 639.4433881662501 1056.6423832688763 642.1189097554804Q1051.2059511035254 644.7659683490806 1045.7979819338047 646.160655134956Q1040.390012764084 647.5553419208313 1035.7790074720062 647.5553419208313L1035.7790074720062 647.5553419208313L1034.7828026249524 647.5553419208313Q1030.200260328505 647.4699529339409 1025.019995123825 646.0468031524354Q1019.8681929147754 644.65211636656 1014.830242688246 642.0050577729598Q1009.7638294660866 639.3579991793599 1005.2097501652692 635.458568778035Q1000.6556708644517 631.55913837671 997.1547224019483 626.2934841851397Q993.6537739394449 621.0562929891996 991.5475122628168 614.4813409986446Q989.4697135818188 607.9348520037195 989.4697135818188 600.0221392185492L989.4697135818188 600.0221392185492Q989.4697135818188 591.9386484595982 991.9744571972685 585.1644554996321Q994.4507378170879 578.4187255352963 998.5209461921936 573.124608348096Q1002.562691571669 567.8020281652657 1007.7144937807187 563.9025977639408Q1012.8662959897686 560.0031673626158 1018.1319501813387 557.4130347602759Q1023.3691413772788 554.7944391623059 1028.2363136300273 553.5420673545811Q1033.075022887146 552.2896955468563 1036.6898233321697 552.2896955468563L1036.6898233321697 552.2896955468563L1037.4867872098127 552.2896955468563Q1043.6063312702863 552.488936516267 1049.498171365719 554.4528832147446Q1055.3900114611515 556.388366917592 1060.6556656527216 559.8039263932051Q1065.9213198442917 563.2194858688181 1070.3615471625887 567.8589541565259Q1074.8017744808858 572.4984224442337 1078.018092987088 578.1056325833651Q1081.2059484976603 583.7128427224966 1083.0275802179872 590.0316277523809Q1084.820748942684 596.3219497866351 1084.820748942684 603.0392167553407ZM1052.7998788588116 601.4452890000546L1052.7998788588116 601.4452890000546Q1052.7998788588116 598.940545384605 1052.7998788588116 594.5287810619382Q1052.7998788588116 590.1170167392711 1052.4583229112502 585.079066512742Q1052.0883039680589 580.0126532905824 1051.2059511035254 574.8039250902725Q1050.295135243362 569.6236598855926 1048.501966518665 565.4111365323365Q1046.7087977939682 561.1986131790804 1043.834035235327 558.5515545854803Q1040.9877356723164 555.9044959918801 1036.6898233321697 555.9044959918801L1036.6898233321697 555.9044959918801Q1028.4924805906985 555.9044959918801 1023.7391603204702 567.118916270143Q1018.9858400502419 578.3048735527759 1018.9858400502419 601.0183440656031L1018.9858400502419 601.0183440656031Q1018.9858400502419 612.3466163263863 1019.9251189060356 620.4301070853373Q1020.8928607574593 628.5420608399183 1022.8852704515668 633.7507890402283Q1024.8776801456745 638.9595172405384 1028.093998651877 641.4073348647278Q1031.2818541624492 643.8551524889172 1035.7790074720062 643.8551524889172L1035.7790074720062 643.8551524889172L1036.6898233321697 643.8551524889172Q1040.9877356723164 643.6559115195064 1043.834035235327 641.1511679040566Q1046.7087977939682 638.646424288607 1048.5588925099253 633.4946220795573Q1050.4089872258824 628.3428198705076 1051.3482660816758 620.4301070853373Q1052.2875449374696 612.5458572957971 1052.7998788588116 601.4452890000546ZM1096.2344101903577 566.4073413793903L1096.2344101903577 562.7071519474762L1106.1395326696359 562.5079109780654Q1106.6234035953476 554.7944391623059 1107.24958949921 545.6578175650409Q1107.8473124074424 536.4927329721457 1108.9289062413864 525.1929237069925L1108.9289062413864 525.1929237069925L1140.7505353558483 525.1929237069925L1137.4488278627557 561.7109471004223L1155.266663127204 561.3124651616008L1155.266663127204 564.8988026109946L1137.0503459239342 565.4111365323365Q1135.655659138059 580.2118942599932 1134.0901943784029 595.2403559526908Q1132.553192614377 610.2403546497583 1132.553192614377 626.0373172244688L1132.553192614377 626.0373172244688Q1132.553192614377 633.7507890402283 1133.6917124395814 637.7640714240738Q1134.858695260416 641.7488908122889 1137.6480688321665 642.261224733631L1137.6480688321665 642.261224733631L1138.6442736792203 642.261224733631Q1143.5683719232293 641.6635018253987 1147.4678023245542 637.6502194415532L1147.4678023245542 637.6502194415532Q1149.0617300798403 635.9424397037467 1150.6556578351262 633.2953811101465Q1152.2780485860426 630.6483225165464 1153.4734944025072 626.8058181064816Q1154.6689402189718 622.9348507007869 1155.3805151097245 617.6976595048468Q1156.0636270048471 612.4320053132767 1156.0636270048471 605.5439603707903L1156.0636270048471 605.5439603707903L1159.7638164367613 605.5439603707903Q1159.7638164367613 613.1435802040294 1158.9099265678578 618.8931053213114Q1158.0560366989546 624.6426304385934 1156.575960926189 628.9120797831099Q1155.0674221577933 633.153066131996 1153.160401450576 636.0562916862671Q1151.2533807433588 638.9595172405384 1149.2609710492509 640.8665379477557L1149.2609710492509 640.8665379477557Q1144.564576770283 645.2498392747923 1138.6442736792203 645.8475621830246L1138.6442736792203 645.8475621830246Q1131.243894815392 645.8475621830246 1125.807462650041 644.3105604189989Q1120.3425674890602 642.7450956593427 1116.5000630789955 640.0126480788524Q1112.6290956733008 637.2517375027317 1110.1812780491114 633.4946220795573Q1107.733460424922 629.737506656383 1106.3956996303068 625.3542053293461Q1105.0294758400614 620.9424410066792 1104.5456049143497 616.0468057583005Q1104.0332709930078 611.1511705099217 1104.0332709930078 606.1416832790226L1104.0332709930078 606.1416832790226Q1104.0332709930078 596.834283707977 1104.6309939012401 587.213791185Q1105.2287168094722 577.6217616576532 1105.940291700225 566.2081004099796L1105.940291700225 566.2081004099796L1096.2344101903577 566.4073413793903ZM1251.6423663307532 589.5192938310388L1251.6423663307532 589.5192938310388Q1251.6423663307532 594.8134110182391 1248.22680685514 599.0828603627556Q1244.8397103751572 603.3238467116419 1239.4602042010665 606.3409242484333Q1234.109161022606 609.3295387895948 1227.562672027681 611.0942445186615Q1221.0161830327559 612.8304872520982 1214.6973980028715 612.9443392346186L1214.6973980028715 612.9443392346186Q1214.2989160640502 612.9443392346186 1212.9042292781749 612.8304872520982Q1211.5095424922995 612.7450982652078 1209.5171327981918 612.1758383526058Q1207.496260108454 611.6350414356336 1204.9915164930044 610.439595619169Q1202.4867728775548 609.2441498027044 1200.0104922577355 606.9386471566656L1200.0104922577355 606.9386471566656Q1200.2951222140364 615.8475647888897 1201.6613460042818 622.194812814404Q1202.999106798897 628.5420608399183 1205.2476834536756 632.6122692150241Q1207.496260108454 636.6540145944994 1210.5418006408759 638.5041093104564Q1213.6158041689275 640.3542040264135 1217.2021416183213 640.3542040264135L1217.2021416183213 640.3542040264135Q1219.3084032949494 640.3542040264135 1222.866277748713 638.9595172405384Q1226.4241522024765 637.564830454663 1230.2666566125413 634.6616049003919Q1234.109161022606 631.7583793461206 1237.8093504545202 627.2612260365636Q1241.5380028820646 622.7356097313761 1244.014283501884 616.445287697122L1244.014283501884 616.445287697122L1246.917509056155 609.0449088332937L1250.532309501179 610.2403546497583L1248.938381745893 614.7375079593155Q1246.7182680867443 620.6578110503781 1243.1319306373507 625.9519282375784Q1239.5171301923267 631.2460454247787 1234.7638099220985 635.4016427867746Q1230.0104896518703 639.5572401487707 1224.2040385433281 642.1189097554804Q1218.397587434786 644.65211636656 1211.7941724486006 645.0505983053815L1211.7941724486006 645.0505983053815Q1200.2951222140364 644.65211636656 1192.297020441976 640.9519269346458Q1184.2989186699153 637.2517375027317 1179.289431439016 631.55913837671Q1174.2799442081168 625.838076255058 1172.0313675533382 618.8361793300512Q1169.7827908985596 611.8342824050444 1169.7827908985596 604.7469964931472L1169.7827908985596 604.7469964931472Q1169.7827908985596 600.0221392185492 1171.2344036756951 594.471855070678Q1172.6860164528307 588.9215709228067 1175.4753900245814 583.2574347924149Q1178.2932265919621 577.6217616576532 1182.3349719714377 572.299181474823Q1186.3767173509132 567.0050642876226 1191.528519559963 562.906392916887Q1196.7087847646426 558.8077215461512 1202.8567918207464 556.3599039219619Q1209.0047988768497 553.9120862977725 1216.120547784377 553.9120862977725L1216.120547784377 553.9120862977725Q1222.610110788042 554.1113272671832 1227.7619129970917 555.84757000062Q1232.9137152061414 557.6122757296866 1236.8700715987266 560.4585752926976Q1240.8264279913117 563.3048748557085 1243.6158015630624 566.9196753007323Q1246.4336381304433 570.506012750126 1248.22680685514 574.376980155821Q1250.0199755798371 578.2194845658855 1250.81693945748 582.1758409584709Q1251.6423663307532 586.132197351056 1251.6423663307532 589.5192938310388ZM1214.4981570334608 557.6122757296866L1214.4981570334608 557.6122757296866Q1211.3103015228887 557.8115166990974 1208.5493909467682 561.1986131790804Q1205.7884803706474 564.6141726546934 1203.8529966678002 570.4490867588659Q1201.8890499693225 576.3124638586683 1200.8074561353783 584.2251766438387Q1199.697399305804 592.137889429009 1199.697399305804 601.2175850350138L1199.697399305804 601.2175850350138Q1202.2021429212539 604.1208105892849 1204.7068865367035 605.743201340201Q1207.211630152153 607.3371290954872 1209.2894288331509 608.07716698187Q1211.395690509779 608.8456678638829 1212.8188402912845 609.0449088332937Q1214.2135270771598 609.2441498027044 1214.4981570334608 609.2441498027044L1214.4981570334608 609.2441498027044Q1218.397587434786 609.1302978201841 1220.9592570414957 607.5363700648979Q1223.5209266482054 605.9424423096118 1224.972539425341 603.1246057422311Q1226.4241522024765 600.3352321704804 1227.0218751107088 596.4358017691554Q1227.6195980189411 592.5363713678305 1227.6195980189411 587.7261251063421L1227.6195980189411 587.7261251063421Q1227.6195980189411 581.7204330283889 1226.8510971369283 576.2555378674081Q1226.1110592505454 570.8191057020572 1224.5740574865195 566.6635083400613Q1223.0085927268635 562.5079109780654 1220.503849111414 560.060093353876Q1217.9991054959644 557.6122757296866 1214.4981570334608 557.6122757296866ZM1260.1243390285256 641.7488908122889L1260.1243390285256 638.1625533628953L1275.5512826600448 638.1625533628953L1278.255267244905 508.7697752284195L1260.6366729498677 508.37129328959804L1260.6366729498677 504.6711038576838L1308.1698756521498 505.58191971784737L1305.2666500978787 638.1625533628953L1325.5892289777764 638.1625533628953L1325.5892289777764 641.7488908122889L1260.1243390285256 641.7488908122889ZM1380.5228105438869 641.3504088734674L1380.5228105438869 637.7640714240738L1407.1357114580387 637.7640714240738L1408.5303982439143 503.4756580412193Q1403.0370400873032 503.4756580412193 1396.8890330311997 503.5610470281096Q1390.712562979466 503.67489901063004 1383.6252770675687 503.67489901063004L1383.6252770675687 503.67489901063004L1383.6252770675687 499.9747095787159Q1395.0104753196124 499.86085759619544 1404.317874890658 499.7754686093051Q1413.6252744617038 499.6616166267847 1421.0825793167921 499.60469063552443Q1428.5398841718809 499.57622763989434 1434.2040203022725 499.57622763989434Q1439.8396934370342 499.57622763989434 1444.0522167902902 499.57622763989434L1444.0522167902902 499.57622763989434L1458.5683445616457 499.57622763989434Q1462.0692930241491 499.57622763989434 1468.274226071513 500.0600985656062Q1474.4791591188769 500.5724324869482 1481.6802970132944 502.16636024223425Q1488.881434907712 503.7602879975204 1496.3387397628005 506.7773655343119Q1503.7960446178893 509.76598007547335 1509.8017366958422 514.6616153238522Q1515.8074287737952 519.5857135678609 1519.6499331838597 526.8437774535388Q1523.5209005895547 534.0733783435865 1523.5209005895547 544.0923528053848L1523.5209005895547 544.0923528053848Q1523.5209005895547 557.2137937908651 1518.7106543280663 565.809618471158Q1513.900408066578 574.405443151451 1504.5930084955323 579.5287823648707Q1495.2856089244865 584.6236585826603 1481.5379820351438 586.6729942680281Q1467.761892150171 588.722329953396 1449.773278911942 588.722329953396L1449.773278911942 588.722329953396L1444.251457759701 588.722329953396L1443.454493882058 637.7640714240738L1468.8719489797452 637.7640714240738L1468.8719489797452 641.3504088734674L1380.5228105438869 641.3504088734674ZM1488.084471030069 543.8931118359741L1488.084471030069 543.8931118359741Q1488.084471030069 535.2972871556811 1486.5759322616732 528.9785021257969Q1485.0958564889077 522.6881800915428 1482.334945912787 518.276415768876Q1479.5740353366662 513.8646514462091 1475.7315309266016 511.0752778744584Q1471.8605635209067 508.2574413070776 1467.1072432506787 506.6635135517915Q1462.3539229804503 505.06958579650535 1456.8605648238392 504.47186288827305Q1451.3672066672282 503.8741399800408 1445.4469035761656 503.67489901063004L1445.4469035761656 503.67489901063004L1444.251457759701 584.2251766438387Q1452.4488005011724 583.314360783675 1458.7106595397966 581.179636111417Q1464.9725185784202 579.0164484435286 1469.583523870498 576.0278339023673Q1474.1660661669455 573.0107563655756 1477.3254586818878 569.452881911812Q1480.4848511968298 565.8950074580484 1482.5911128734579 562.3086700086546L1482.5911128734579 562.3086700086546Q1487.372896139316 553.9120862977725 1488.084471030069 543.8931118359741ZM1582.5531535264008 560.0031673626158L1627.0692786918914 560.4016493014374L1624.5645350764419 636.8532555639101L1634.9819914770617 635.8570507168563L1635.3804734158832 639.5572401487707L1596.443095393894 643.0581886112739L1596.6423363633046 626.6350401327011Q1594.9630196211285 630.3636925602455 1593.1413879008016 633.153066131996Q1591.3482191761043 635.9424397037467 1589.4981244601474 637.9917753891145Q1587.6480297441904 640.0695740701126 1585.8548610194937 641.5211868472481Q1584.0332292991664 642.9727996243837 1582.4393015438802 643.8551524889172L1582.4393015438802 643.8551524889172Q1578.6537231250759 646.0468031524354 1574.9535336931617 646.3598961043667L1574.9535336931617 646.3598961043667Q1566.2438570303482 646.3598961043667 1559.7258310310533 642.9158736331235Q1553.2362680273884 639.4433881662501 1548.938355687242 633.7507890402283Q1544.6119803514655 628.0581899142064 1542.4772556792075 620.8001260285287Q1540.314068011319 613.5420621428509 1540.314068011319 605.9424423096118L1540.314068011319 605.9424423096118L1542.420329687947 563.3048748557085L1530.5227975145615 563.1056338862977L1530.5227975145615 559.4054444543835L1574.1281068198887 560.0031673626158Q1571.93645615637 578.3048735527759 1570.7979363311658 590.8855176212842Q1569.6309535103312 603.4376986941622 1569.1470825846195 611.2365594968121L1569.1470825846195 611.2365594968121Q1568.5493596763872 620.4301070853373 1568.4355076938668 626.0373172244688L1568.4355076938668 626.0373172244688Q1568.4355076938668 631.2460454247787 1569.2324715715097 634.4623639309812Q1570.029435449153 637.6502194415532 1571.338733248138 639.4433881662501Q1572.6480310471227 641.2650198865772 1574.1281068198887 641.9196687860697Q1575.6366455882842 642.545854689932 1577.0313323741595 642.6597066724526L1577.0313323741595 642.6597066724526Q1579.1375940507878 642.1473727511104 1581.6992636574976 640.6672969783449Q1584.2609332642076 639.1587582099492 1586.9079918578075 635.9993656950069Q1589.5550504514076 632.8399731800648 1592.0597940668572 627.7450969622753Q1594.564537682307 622.6502207444858 1596.6423363633046 615.135989898137L1596.6423363633046 615.135989898137L1597.3539112540575 563.9025977639408L1582.5531535264008 563.70335679453L1582.5531535264008 560.0031673626158ZM1729.9345448991055 589.5192938310388L1729.9345448991055 589.5192938310388Q1729.9345448991055 594.8134110182391 1726.5474484191225 599.0828603627556Q1723.1318889435095 603.3238467116419 1717.7808457650488 606.3409242484333Q1712.4298025865885 609.3295387895948 1705.8833135916632 611.0942445186615Q1699.3083616011081 612.8304872520982 1693.018039566854 612.9443392346186L1693.018039566854 612.9443392346186Q1692.6195576280325 612.9443392346186 1691.2248708421573 612.8304872520982Q1689.8301840562817 612.7450982652078 1687.809311366544 612.1758383526058Q1685.8169016724366 611.6350414356336 1683.3121580569868 610.439595619169Q1680.8074144415373 609.2441498027044 1678.3026708260877 606.9386471566656L1678.3026708260877 606.9386471566656Q1678.6157637780186 615.8475647888897 1679.953524572634 622.194812814404Q1681.319748362879 628.5420608399183 1683.5683250176578 632.6122692150241Q1685.8169016724366 636.6540145944994 1688.862442204858 638.5041093104564Q1691.9079827372796 640.3542040264135 1695.5227831823036 640.3542040264135L1695.5227831823036 640.3542040264135Q1697.6290448589316 640.3542040264135 1701.1869193126952 638.9595172405384Q1704.716330770829 637.564830454663 1708.5872981765235 634.6616049003919Q1712.4298025865885 631.7583793461206 1716.1299920185027 627.2612260365636Q1719.8301814504168 622.7356097313761 1722.3349250658664 616.445287697122L1722.3349250658664 616.445287697122L1725.2381506201375 609.0449088332937L1728.8529510651613 610.2403546497583L1727.230560314245 614.7375079593155Q1725.0389096507267 620.6578110503781 1721.424109205703 625.9519282375784Q1717.8377717563092 631.2460454247787 1713.084451486081 635.4016427867746Q1708.3311312158526 639.5572401487707 1702.5246801073101 642.1189097554804Q1696.7182289987684 644.65211636656 1690.1148140125829 645.0505983053815L1690.1148140125829 645.0505983053815Q1678.6157637780186 644.65211636656 1670.617662005958 640.9519269346458Q1662.5910972382674 637.2517375027317 1657.5816100073682 631.55913837671Q1652.600585772099 625.838076255058 1650.3520091173204 618.8361793300512Q1648.0749694669119 611.8342824050444 1648.0749694669119 604.7469964931472L1648.0749694669119 604.7469964931472Q1648.0749694669119 600.0221392185492 1649.5265822440476 594.471855070678Q1650.978195021183 588.9215709228067 1653.796031588564 583.2574347924149Q1656.5854051603144 577.6217616576532 1660.6556135354201 572.299181474823Q1664.6973589148956 567.0050642876226 1669.8491611239454 562.906392916887Q1675.000963332995 558.8077215461512 1681.1489703890986 556.3599039219619Q1687.3254404408322 553.9120862977725 1694.4127263527291 553.9120862977725L1694.4127263527291 553.9120862977725Q1700.9307523520242 554.1113272671832 1706.082554561074 555.84757000062Q1711.2343567701237 557.6122757296866 1715.190713162709 560.4585752926976Q1719.1470695552941 563.3048748557085 1721.9364431270449 566.9196753007323Q1724.7258166987954 570.506012750126 1726.5474484191225 574.376980155821Q1728.3406171438194 578.2194845658855 1729.1375810214624 582.1758409584709Q1729.9345448991055 586.132197351056 1729.9345448991055 589.5192938310388ZM1692.8187985974432 557.6122757296866L1692.8187985974432 557.6122757296866Q1689.6024800912407 557.8115166990974 1686.8700325107504 561.1986131790804Q1684.1091219346297 564.6141726546934 1682.1736382317824 570.4490867588659Q1680.209691533305 576.3124638586683 1679.0996347037305 584.2251766438387Q1678.0180408697865 592.137889429009 1678.0180408697865 601.2175850350138L1678.0180408697865 601.2175850350138Q1680.5227844852361 604.1208105892849 1682.9990651050557 605.743201340201Q1685.5038087205053 607.3371290954872 1687.6100703971333 608.07716698187Q1689.7163320737611 608.8456678638829 1691.1110188596367 609.0449088332937Q1692.5057056455119 609.2441498027044 1692.8187985974432 609.2441498027044L1692.8187985974432 609.2441498027044Q1696.7182289987684 609.1302978201841 1699.279898605478 607.5363700648979Q1701.8131052165577 605.9424423096118 1703.2647179936932 603.1246057422311Q1704.716330770829 600.3352321704804 1705.3140536790609 596.4358017691554Q1705.9402395829236 592.5363713678305 1705.9402395829236 587.7261251063421L1705.9402395829236 587.7261251063421Q1705.9402395829236 581.7204330283889 1705.1717387009105 576.2555378674081Q1704.4317008145279 570.8191057020572 1702.8662360548717 566.6635083400613Q1701.329234290846 562.5079109780654 1698.8244906753964 560.060093353876Q1696.3197470599468 557.6122757296866 1692.8187985974432 557.6122757296866ZM1777.866229540209 643.4566705500956L1777.866229540209 643.4566705500956Q1771.7751484753658 643.4566705500956 1766.0540863537137 641.9196687860697Q1760.361487227692 640.3542040264135 1755.7220189399843 637.5079044634028Q1751.0540876566463 634.6616049003919 1747.809306154814 630.7052485078066Q1744.5645246529814 626.7488921152215 1743.4544678234072 621.9386458537331L1743.4544678234072 621.9386458537331Q1743.4544678234072 619.1492722819823 1744.3083576923104 616.7299176534232Q1745.1622475612137 614.339026020494 1746.6992493252396 612.5458572957971Q1748.2647140848956 610.7242255754702 1750.3425127658936 609.6995577327862Q1752.4487744425217 608.6464268944721 1754.8681290710808 608.6464268944721L1754.8681290710808 608.6464268944721Q1757.771354625352 608.6464268944721 1760.5607281971027 610.3257436366487Q1763.3501017688534 612.0335233744552 1765.3709744585913 615.5344718369586L1765.3709744585913 615.5344718369586Q1766.9649022138772 618.4376973912297 1767.70494010026 621.3409229455008Q1768.473440982273 624.2441484997719 1768.9288489123549 626.9481330846322Q1769.3557938468064 629.6521176694926 1769.7258127899977 632.0145463067918Q1770.067368737559 634.3485119484606 1770.9212586064625 636.0562916862671Q1771.7751484753658 637.7640714240738 1773.369076230652 638.7602762711276Q1774.9630039859378 639.7564811181815 1777.866229540209 639.7564811181815L1777.866229540209 639.7564811181815Q1782.562623819177 639.7564811181815 1785.9781832947904 638.8456652580178Q1789.3937427704032 637.9633123934846 1791.5853934339216 636.3409216425682Q1793.7770440974398 634.7469938872821 1794.830174935754 632.7545841931744Q1795.8833057740678 630.762174499067 1795.8833057740678 628.456671853028L1795.8833057740678 628.456671853028Q1795.8833057740678 625.838076255058 1794.4886189881927 623.1340916701977Q1793.0939322023175 620.4301070853373 1790.3899476174568 618.0961414436683Q1787.6859630325964 615.7337128063693 1783.615754657491 613.8266920991521Q1779.5740092780156 611.9481343875648 1774.1660401082947 611.0373185274013L1774.1660401082947 611.0373185274013Q1768.0749590434514 610.0411136803475 1762.9231568344019 608.0487039862398Q1757.771354625352 606.0278312965022 1753.9573132109174 602.6691978121494Q1750.1432717964828 599.3390273234265 1748.0085471242248 594.471855070678Q1745.8453594563364 589.6331458135594 1745.8453594563364 582.8304898579634L1745.8453594563364 582.8304898579634Q1745.8453594563364 576.0278339023673 1748.8908999887578 570.762179710797Q1751.9649035168097 565.4965255192269 1756.7466867826681 561.9101880698331Q1761.5569330441565 558.2953876248093 1767.5626251221095 556.388366917592Q1773.5683172000624 554.5098092060048 1779.4886202911252 554.5098092060048L1779.4886202911252 554.5098092060048Q1781.9649009109446 554.5098092060048 1785.2666084040372 554.8513651535661Q1788.5683158971299 555.1929211011275 1792.0408013640033 556.1037369612909Q1795.4848238352465 557.0145528214543 1798.9003833108598 558.4946285942201Q1802.2874797908426 560.0031673626158 1804.9345383844427 562.3086700086546Q1807.5815969780429 564.6141726546934 1809.2039877289592 567.8020281652657Q1810.797915484245 571.018346671468 1810.797915484245 575.202407029094L1810.797915484245 575.202407029094Q1810.797915484245 577.6217616576532 1809.9440256153418 579.7280233342815Q1809.0901357464384 581.8058220152793 1807.638522969303 583.3712867749352Q1806.1869101921675 584.9082885389612 1804.25142648932 585.8191043991246Q1802.2874797908426 586.7299202592883 1800.1812181142145 586.7299202592883L1800.1812181142145 586.7299202592883Q1795.370971852726 586.7299202592883 1792.9231542285368 584.6236585826603Q1790.4753366043471 582.517396906032 1789.3937427704032 579.32954139546Q1788.2836859408292 576.1132228892575 1787.9421299932676 572.4699594486035Q1787.5721110500763 568.7982330123195 1786.8889991549536 565.6103775017473Q1786.177424264201 562.394058995545 1784.640422500175 560.316260314547Q1783.0749577405188 558.2099986379189 1779.4886202911252 558.2099986379189L1779.4886202911252 558.2099986379189Q1772.657501339899 558.6938695636309 1768.8149969298345 561.4547801397514Q1764.9724925197695 564.2156907158719 1764.9724925197695 568.7982330123195L1764.9724925197695 568.7982330123195Q1764.9724925197695 571.815310549111 1766.2533273231245 574.6616101121219Q1767.5626251221095 577.5079096751329 1770.0104427462988 579.9272643036923Q1772.4582603704882 582.3181559366212 1775.9592088329916 584.0828616656881Q1779.4886202911252 585.8191043991246 1783.7865326312717 586.5306792898775L1783.7865326312717 586.5306792898775Q1789.678372726704 587.5268841369314 1795.086341896425 589.7185348004496Q1800.4943110661457 591.9386484595982 1804.6499084281415 595.3257449395812Q1808.8055057901377 598.7413044151942 1811.253323414327 603.2953837160117Q1813.7011410385162 607.8494630168291 1813.7011410385162 613.3428211734401L1813.7011410385162 613.3428211734401Q1813.7011410385162 618.8361793300512 1810.8548414755053 624.2441484997719Q1807.9800789168644 629.6521176694926 1803.0844436684856 633.8931040183788Q1798.1888084201069 638.1625533628953 1791.670782420812 640.8096119564955Q1785.1812194171468 643.4566705500956 1777.866229540209 643.4566705500956ZM1825.9971551507235 566.4073413793903L1825.9971551507235 562.7071519474762L1835.9022776300014 562.5079109780654Q1836.4146115513433 554.7944391623059 1837.0123344595756 545.6578175650409Q1837.610057367808 536.4927329721457 1838.7201141973821 525.1929237069925L1838.7201141973821 525.1929237069925L1870.541743311844 525.1929237069925L1867.2400358187513 561.7109471004223L1885.0294080875694 561.3124651616008L1885.0294080875694 564.8988026109946L1866.8415538799297 565.4111365323365Q1865.4184040984244 580.2118942599932 1863.8814023343987 595.2403559526908Q1862.3159375747425 610.2403546497583 1862.3159375747425 626.0373172244688L1862.3159375747425 626.0373172244688Q1862.3159375747425 633.7507890402283 1863.4829203955771 637.7640714240738Q1864.6214402207813 641.7488908122889 1867.439276788162 642.261224733631L1867.439276788162 642.261224733631L1868.4354816352159 642.261224733631Q1873.3311168835946 641.6635018253987 1877.2305472849196 637.6502194415532L1877.2305472849196 637.6502194415532Q1878.8529380358361 635.9424397037467 1880.4468657911223 633.2953811101465Q1882.040793546408 630.6483225165464 1883.2362393628725 626.8058181064816Q1884.4316851793371 622.9348507007869 1885.1432600700898 617.6976595048468Q1885.8548349608425 612.4320053132767 1885.8548349608425 605.5439603707903L1885.8548349608425 605.5439603707903L1889.555024392757 605.5439603707903Q1889.555024392757 613.1435802040294 1888.7011345238536 618.8931053213114Q1887.8472446549501 624.6426304385934 1886.3387058865544 628.9120797831099Q1884.8301671181587 633.153066131996 1882.9516094065718 636.0562916862671Q1881.044588699354 638.9595172405384 1879.0521790052464 640.8665379477557L1879.0521790052464 640.8665379477557Q1874.3273217306485 645.2498392747923 1868.4354816352159 645.8475621830246L1868.4354816352159 645.8475621830246Q1861.0351027713875 645.8475621830246 1855.570207610407 644.3105604189989Q1850.1337754450558 642.7450956593427 1846.2628080393608 640.0126480788524Q1842.4203036292963 637.2517375027317 1839.9724860051072 633.4946220795573Q1837.5246683809175 629.737506656383 1836.1584445906722 625.3542053293461Q1834.8206837960572 620.9424410066792 1834.3083498747153 616.0468057583005Q1833.7960159533734 611.1511705099217 1833.7960159533734 606.1416832790226L1833.7960159533734 606.1416832790226Q1833.7960159533734 596.834283707977 1834.4222018572357 587.213791185Q1835.019924765468 577.6217616576532 1835.7030366605907 566.2081004099796L1835.7030366605907 566.2081004099796L1825.9971551507235 566.4073413793903ZM1975.5986601825764 643.6559115195064L1975.997142121398 643.6559115195064Q1978.2172557805463 643.4566705500956 1980.209665474654 641.464260855988L1980.209665474654 641.464260855988Q1981.917445212461 639.7564811181815 1983.7106139371574 635.9993656950069Q1985.5037826618543 632.2422502718325 1986.699228478319 625.2403533468257L1986.699228478319 625.2403533468257L1990.399417910233 625.6388352856472Q1989.0047311243577 633.950030009639 1986.670765482689 638.3617943323061Q1984.3083368453897 642.7450956593427 1981.917445212461 644.7659683490806L1981.917445212461 644.7659683490806Q1979.0996086450798 647.1568599820098 1975.997142121398 647.3561009514206L1975.997142121398 647.3561009514206Q1973.6062504884687 647.3561009514206 1969.8491350652946 646.6729890562979Q1966.09201964212 645.9614141655452 1962.3918302102059 644.1967084364783Q1958.6916407782917 642.4604657030418 1955.5891742546098 639.5572401487707Q1952.486707730928 636.6540145944994 1951.2912619144633 632.1568612849421L1951.2912619144633 632.1568612849421Q1947.1925905437276 639.0449062274286 1940.2760826056112 643.3997445588352Q1933.3880376631248 647.7545828902421 1924.5645090177911 647.7545828902421L1924.5645090177911 647.7545828902421Q1920.1527446951243 647.7545828902421 1915.655591385567 646.7583780431883Q1911.1584380760098 645.7621731961344 1907.4013226528352 643.4566705500956Q1903.6442072296607 641.1511679040566 1901.3102415879919 637.3940524808822Q1898.947812950693 633.6654000533381 1898.947812950693 628.0581899142064L1898.947812950693 628.0581899142064Q1898.947812950693 621.0562929891996 1901.7087235268134 615.9044907801499Q1904.4696341029342 610.7242255754702 1909.0521763993813 607.280203104227Q1913.6631816914594 603.8361806329838 1919.5550217868915 602.1284008951773Q1925.4753248779546 600.4206211573708 1931.7656469122087 600.4206211573708L1931.7656469122087 600.4206211573708Q1936.0635592523552 600.4206211573708 1940.1337676274604 601.4452890000546Q1944.1755130069362 602.4414938471084 1948.3880363601922 604.946237462558L1948.3880363601922 604.946237462558Q1948.587277329603 599.8228982491385 1949.2419262290957 594.7280220313489Q1949.896575128588 589.6331458135594 1950.3804460543 585.2213814908926L1950.3804460543 585.2213814908926Q1950.693539006231 582.6312488885526 1950.8358539843814 581.0088581376363Q1950.9781689625322 579.4149303823501 1951.0920209450526 578.4187255352963Q1951.177409931943 577.4225206882425 1951.2343359232034 576.9101867669006Q1951.2912619144633 576.4263158411889 1951.2912619144633 576.0278339023673L1951.2912619144633 576.0278339023673Q1951.2912619144633 566.9196753007323 1947.9895544213707 561.5117061310116Q1944.687846928278 556.1037369612909 1939.166025776037 556.1037369612909L1939.166025776037 556.1037369612909Q1936.575893173697 556.3029779307017 1933.8719085888367 557.0145528214543Q1931.1679240039764 557.697664716577 1928.976273340458 558.9500365243018Q1926.7846226769395 560.2024083320266 1925.3614728954342 562.0525030479837Q1923.9667861095588 563.9025977639408 1923.9667861095588 566.4073413793903L1923.9667861095588 566.4073413793903Q1923.9667861095588 569.1113259642507 1925.6745658473653 570.6483277282766Q1927.3823455851718 572.2137924879326 1929.4316812705395 573.7507942519585Q1931.4810169559075 575.3162590116144 1933.188796693714 577.3086687057221Q1934.8681134358906 579.32954139546 1934.8681134358906 582.8304898579634L1934.8681134358906 582.8304898579634Q1934.8681134358906 586.5306792898775 1933.729593610686 588.9784969140669Q1932.5626107898518 591.4263145382563 1930.6840530782645 592.934853306652Q1928.7770323710472 594.4149290794176 1926.357677742488 595.0695779789103Q1923.9667861095588 595.7242268784028 1921.5758944766296 595.7242268784028L1921.5758944766296 595.7242268784028Q1919.07115086118 595.7242268784028 1916.6233332369904 594.8703370094995Q1914.1755156128013 594.016447140596 1912.2115689143236 592.2232784158994Q1910.247622215846 590.4301096912025 1908.9952504081214 587.5268841369314Q1907.7713415960268 584.6236585826603 1907.7713415960268 580.5249872119246L1907.7713415960268 580.5249872119246Q1907.7713415960268 575.0031660596833 1910.4468631852567 570.0221418244141Q1913.150847770117 565.012654593515 1917.5626120927843 561.1986131790804Q1921.9743764154512 557.4130347602759 1927.5815865545826 555.0506061229769Q1933.188796693714 552.6881774856778 1938.9667848066263 552.488936516267L1938.9667848066263 552.488936516267Q1944.374753976347 552.488936516267 1950.722002001861 554.7090501754155Q1957.0977130230056 556.900700838934 1962.647997170877 562.1948180261343Q1968.198281318748 567.5173982089646 1971.8984707506622 576.4263158411889Q1975.5986601825764 585.3067704777827 1975.5986601825764 598.7413044151942L1975.5986601825764 598.7413044151942Q1975.5986601825764 605.0316264494484 1975.143252252495 610.7242255754702Q1974.687844322413 616.445287697122 1974.203973396701 621.2839969542406Q1973.6916394753591 626.1511692069892 1973.2646945409076 630.1359885952045Q1972.8092866108257 634.1492709790498 1972.8092866108257 637.0524965333209L1972.8092866108257 637.0524965333209Q1972.8092866108257 639.955722087592 1973.350083527798 641.6635018253987Q1973.89088044477 643.3712815632052 1975.5986601825764 643.6559115195064L1975.5986601825764 643.6559115195064ZM1949.5834821766568 626.8342811021118L1949.5834821766568 626.8342811021118Q1948.9857592684245 623.4471846221288 1948.6726663164934 619.6900691989545Q1948.3880363601922 615.9329537757801 1948.3880363601922 612.1473753569755L1948.3880363601922 612.1473753569755L1948.3880363601922 609.4433907721152Q1945.5701997928115 607.1378881260764 1942.3254182909789 606.0278312965022Q1939.0806367891466 604.946237462558 1936.4905041868067 604.946237462558L1936.4905041868067 604.946237462558Q1930.1717191569226 604.946237462558 1926.87001166383 610.1265026672379Q1923.5683041707373 615.3352308675478 1923.5683041707373 623.959518543471L1923.5683041707373 623.959518543471Q1923.5683041707373 627.5458559928645 1924.30834205712 630.6483225165464Q1925.076842939133 633.7507890402283 1926.414603733748 635.9993656950069Q1927.7808275239934 638.2479423497855 1929.7163112268406 639.5003141575103Q1931.6802579253183 640.7526859652351 1934.0711495582475 640.7526859652351L1934.0711495582475 640.7526859652351Q1936.4905041868067 640.7526859652351 1938.7390808415855 639.5572401487707Q1940.987657496364 638.3617943323061 1942.9800671904716 636.3978476338284Q1944.9724768845792 634.4623639309812 1946.6802566223857 631.9576203155314Q1948.3880363601922 629.4528767000818 1949.5834821766568 626.8342811021118ZM2112.07872422895 641.7488908122889L2112.27796519836 632.5553432237637Q2111.8794832595386 634.5477529178713 2110.3424814955124 636.3124586469382Q2108.7770167358567 638.0487013803747 2106.5853660723387 639.6141661400309Q2104.39371540882 641.1511679040566 2101.83204580211 642.3466137205212Q2099.270376195401 643.570522532616 2096.9364105537315 644.3674864102591Q2094.573981916432 645.1644502879021 2092.8377391829954 645.5060062354635Q2091.0730334539294 645.8475621830246 2090.3899215588062 645.6483212136138L2090.3899215588062 645.6483212136138Q2082.562597760526 645.6483212136138 2076.528442686943 643.6559115195064Q2070.4658246177296 641.6635018253987 2065.911745316913 638.3048683410457Q2061.357666016095 634.9462348566929 2058.2551994924133 630.5060075383958Q2055.1527329687315 626.0373172244688 2053.245712261514 621.0847559848298Q2051.338691554297 616.1321947451909 2050.5132646810234 610.923466544881Q2049.6593748121204 605.743201340201 2049.6593748121204 601.0183440656031L2049.6593748121204 601.0183440656031Q2049.6593748121204 597.7166365725104 2050.541727676654 592.934853306652Q2051.452543536817 588.1246070451637 2053.416490235295 582.9158788448535Q2055.351973938142 577.7071506445436 2058.4544404618237 572.5553484354939Q2061.5569069855055 567.4035462264442 2065.968671308173 563.3048748557085Q2070.3519726352097 559.2062034849728 2076.158423743752 556.644533878263Q2081.964874852294 554.1113272671832 2089.3652537161224 554.1113272671832L2089.3652537161224 554.1113272671832Q2092.9800541611457 554.1113272671832 2096.424076632389 555.2498470923877Q2099.896562099262 556.388366917592 2102.999028622945 558.3523136160695Q2106.101495146627 560.316260314547 2108.7770167358567 562.9633189081471Q2111.481001320717 565.6103775017473 2113.5872629973446 568.5989920429088L2113.5872629973446 568.5989920429088L2114.78270881381 508.37129328959804L2093.065443148036 508.37129328959804L2093.065443148036 505.58191971784737L2144.298835282233 505.58191971784737L2141.8225546624135 638.1625533628953L2162.1166705466812 638.1625533628953L2162.1166705466812 641.7488908122889L2112.07872422895 641.7488908122889ZM2096.7940955755803 639.955722087592L2096.7940955755803 639.955722087592Q2099.0711352259896 639.955722087592 2101.547415845809 638.646424288607Q2103.9952334699983 637.3655894852523 2106.186884133517 634.8608458698027Q2108.378534797035 632.3561022543529 2110.0293885435813 628.5989868311785Q2111.6802422901274 624.8418714080042 2112.505669163401 620.0316251465158L2112.505669163401 620.0316251465158L2113.5872629973446 576.2270748717781Q2111.9933352420594 572.4130334573433 2109.943999556691 569.6236598855926Q2107.8946638713232 566.8058233182119 2105.674550212175 564.8134136241042Q2103.482899548656 562.7925409343666 2101.234322893878 561.5117061310116Q2098.985746239099 560.2024083320266 2096.9933365449915 559.4054444543835L2096.9933365449915 559.4054444543835Q2094.6878338989527 559.4054444543835 2091.8699973315715 561.2555391703406Q2089.080623759821 563.1056338862977 2086.661269131262 568.1151211171968Q2084.270377498333 573.124608348096 2082.619523751787 581.9196739977997Q2080.96867000524 590.7147396475034 2080.96867000524 604.7469964931472L2080.96867000524 604.7469964931472Q2080.96867000524 614.8513599418359 2082.334893795485 621.6540158974319Q2083.6726545901 628.456671853028 2085.921231244879 632.4984172325035Q2088.169807899658 636.540162611979 2091.0161074626685 638.2479423497855Q2093.8908700213096 639.955722087592 2096.7940955755803 639.955722087592ZM2248.3880103015417 589.5192938310388L2248.3880103015417 589.5192938310388Q2248.3880103015417 594.8134110182391 2244.9724508259287 599.0828603627556Q2241.5853543459452 603.3238467116419 2236.2343111674845 606.3409242484333Q2230.8548049933943 609.3295387895948 2224.308315998469 611.0942445186615Q2217.7618270035446 612.8304872520982 2211.44304197366 612.9443392346186L2211.44304197366 612.9443392346186Q2211.0445600348385 612.9443392346186 2209.6498732489626 612.8304872520982Q2208.2551864630877 612.7450982652078 2206.26277676898 612.1758383526058Q2204.241904079242 611.6350414356336 2201.737160463793 610.439595619169Q2199.2608798439733 609.2441498027044 2196.756136228524 606.9386471566656L2196.756136228524 606.9386471566656Q2197.040766184825 615.8475647888897 2198.4069899750702 622.194812814404Q2199.744750769685 628.5420608399183 2201.993327424464 632.6122692150241Q2204.241904079242 636.6540145944994 2207.3159076072943 638.5041093104564Q2210.3614481397153 640.3542040264135 2213.947785589109 640.3542040264135L2213.947785589109 640.3542040264135Q2216.0540472657376 640.3542040264135 2219.611921719501 638.9595172405384Q2223.1697961732652 637.564830454663 2227.0123005833293 634.6616049003919Q2230.8548049933943 631.7583793461206 2234.5834574209384 627.2612260365636Q2238.283646852853 622.7356097313761 2240.788390468302 616.445287697122L2240.788390468302 616.445287697122L2243.6631530269433 609.0449088332937L2247.2779534719675 610.2403546497583L2245.6840257166814 614.7375079593155Q2243.463912057533 620.6578110503781 2239.877574608139 625.9519282375784Q2236.262774163115 631.2460454247787 2231.509453892887 635.4016427867746Q2226.756133622658 639.5572401487707 2220.949682514117 642.1189097554804Q2215.171694401204 644.65211636656 2208.568279415019 645.0505983053815L2208.568279415019 645.0505983053815Q2197.040766184825 644.65211636656 2189.0426644127638 640.9519269346458Q2181.0445626407036 637.2517375027317 2176.0350754098044 631.55913837671Q2171.0255881789053 625.838076255058 2168.7770115241265 618.8361793300512Q2166.5284348693476 611.8342824050444 2166.5284348693476 604.7469964931472L2166.5284348693476 604.7469964931472Q2166.5284348693476 600.0221392185492 2167.9800476464834 594.471855070678Q2169.431660423619 588.9215709228067 2172.22103399537 583.2574347924149Q2175.03887056275 577.6217616576532 2179.0806159422264 572.299181474823Q2183.150824317331 567.0050642876226 2188.3026265263816 562.906392916887Q2193.454428735431 558.8077215461512 2199.602435791535 556.3599039219619Q2205.7504428476377 553.9120862977725 2212.8661917551653 553.9120862977725L2212.8661917551653 553.9120862977725Q2219.3557547588307 554.1113272671832 2224.50755696788 555.84757000062Q2229.6593591769297 557.6122757296866 2233.6157155695146 560.4585752926976Q2237.5720719621004 563.3048748557085 2240.361445533851 566.9196753007323Q2243.1792821012314 570.506012750126 2244.9724508259287 574.376980155821Q2246.765619550625 578.2194845658855 2247.5910464238987 582.1758409584709Q2248.3880103015417 586.132197351056 2248.3880103015417 589.5192938310388ZM2211.243801004249 557.6122757296866L2211.243801004249 557.6122757296866Q2208.0559454936765 557.8115166990974 2205.295034917556 561.1986131790804Q2202.5625873370655 564.6141726546934 2200.598640638588 570.4490867588659Q2198.634693940111 576.3124638586683 2197.5531001061663 584.2251766438387Q2196.443043276592 592.137889429009 2196.443043276592 601.2175850350138L2196.443043276592 601.2175850350138Q2198.947786892042 604.1208105892849 2201.4525305074912 605.743201340201Q2203.9572741229413 607.3371290954872 2206.0635357995698 608.07716698187Q2208.141334480567 608.8456678638829 2209.564484262073 609.0449088332937Q2210.959171047948 609.2441498027044 2211.243801004249 609.2441498027044L2211.243801004249 609.2441498027044Q2215.171694401204 609.1302978201841 2217.7049010122837 607.5363700648979Q2220.2665706189937 605.9424423096118 2221.7181833961295 603.1246057422311Q2223.1697961732652 600.3352321704804 2223.767519081497 596.4358017691554Q2224.36524198973 592.5363713678305 2224.36524198973 587.7261251063421L2224.36524198973 587.7261251063421Q2224.36524198973 581.7204330283889 2223.6252041033467 576.2555378674081Q2222.856703221333 570.8191057020572 2221.319701457308 566.6635083400613Q2219.7542366976513 562.5079109780654 2217.249493082202 560.060093353876Q2214.744749466752 557.6122757296866 2211.243801004249 557.6122757296866ZM2256.8984459949443 641.7488908122889L2256.8984459949443 638.1625533628953L2272.296926630833 638.1625533628953L2275.000911215693 508.7697752284195L2257.382316920656 508.37129328959804L2257.382316920656 504.6711038576838L2304.9155196229385 505.58191971784737L2302.012294068667 638.1625533628953L2322.334872948565 638.1625533628953L2322.334872948565 641.7488908122889L2256.8984459949443 641.7488908122889ZM2446.31968191332 560.0031673626158L2446.31968191332 560.0031673626158Q2461.8320145317293 561.7109471004223 2472.6194898755402 565.6957664886377Q2483.4354282149825 569.709048872483 2490.181158179318 575.2593330203542Q2496.955351139284 580.8096171682255 2500.000891671705 587.5838101281915Q2503.046432204127 594.3295400925274 2503.046432204127 601.6445299694653L2503.046432204127 601.6445299694653Q2503.046432204127 610.0411136803475 2500.3424476192667 616.445287697122Q2497.6384630344064 622.8494617138965 2493.1982357161096 627.6881709710151Q2488.7295454021823 632.5553432237637 2482.9800202849 635.8570507168563Q2477.230495167618 639.1587582099492 2471.1678770984045 641.208093895317Q2465.1337220248215 643.2574295806846 2459.2134189337594 644.1967084364783Q2453.321578838327 645.1644502879021 2448.5967215637284 645.2498392747923L2448.5967215637284 645.2498392747923L2446.1204409439088 645.2498392747923Q2441.1109537130096 645.1644502879021 2434.6498537049747 644.395949405889Q2428.18875369694 643.6559115195064 2421.443023732604 642.0619837642203Q2414.6972937682685 640.4680560089341 2408.1792677689737 637.9063864022241Q2401.689704765309 635.3447167955144 2396.5663655518892 631.55913837671Q2391.4714893340997 627.7450969622753 2388.369022810418 622.5363687619654Q2385.266556286736 617.3276405616555 2385.266556286736 610.439595619169L2385.266556286736 610.439595619169Q2385.266556286736 606.7394061872549 2386.4620021032006 603.9215696198742Q2387.6574479196643 601.1321960481234 2389.7637095962928 599.168249349646Q2391.8699712729212 597.2327656467985 2394.6308818490415 596.1227088172243Q2397.3633294295323 595.0411149832801 2400.579647935734 594.8134110182391L2400.579647935734 594.8134110182391Q2404.479078337059 594.8134110182391 2407.837711821412 596.4642647647854Q2411.196345305765 598.1151185113317 2413.701088921215 601.0752700568632Q2416.177369541034 604.0354216023945 2417.7428343006904 608.1910189643904Q2419.2798360647157 612.3466163263863 2419.479077034127 617.4414925441758L2419.479077034127 617.4414925441758Q2419.6783180035372 621.5401639149115 2421.386097741344 625.838076255058Q2423.093877479151 630.1359885952045 2426.3955849722433 633.6654000533381Q2429.6972924653364 637.1663485158415 2434.5929277137147 639.3579991793599Q2439.5170259577235 641.5496498428781 2446.1204409439088 641.5496498428781L2446.1204409439088 641.5496498428781Q2451.3007061485887 641.5496498428781 2455.5701554931047 639.4433881662501Q2459.8111418419912 637.3655894852523 2462.8282193787836 633.8646410227489Q2465.8168339199447 630.3636925602455 2467.410761675231 625.6957612769074Q2469.0331524261464 621.0562929891996 2469.0331524261464 615.9329537757801L2469.0331524261464 615.9329537757801Q2469.0331524261464 611.3504114793325 2467.410761675231 606.8247951741453Q2465.8168339199447 602.327641864588 2462.429737439962 598.7697674108244Q2459.014177964348 595.2403559526908 2453.7200607771483 592.934853306652Q2448.397480594317 590.6293506606132 2440.9971017304897 590.3162577086819L2440.9971017304897 590.3162577086819Q2425.883251050901 589.6331458135594 2415.2380906852404 585.8191043991246Q2404.59293031958 582.0050629846901 2397.7902743639843 575.9709079111069Q2390.9591554127574 569.9082898418937 2387.828225893445 562.1094290392439Q2384.668833378503 554.310568236594 2384.668833378503 545.686280560671L2384.668833378503 545.686280560671Q2384.668833378503 536.3788809896253 2387.458206950254 529.3485210689885Q2390.276043517635 522.2896981527213 2394.915511805343 517.1378959436715Q2399.5834430886807 511.9860937346219 2405.5891351666332 508.51360826774857Q2411.5948272445867 505.06958579650535 2418.027464256991 502.9633241198773Q2424.488564265026 500.8570624432493 2430.83581229054 500.00317257434597Q2437.2115233116847 499.1777457010728 2442.6194924814054 499.1777457010728L2442.6194924814054 499.1777457010728L2443.81493829787 499.1777457010728Q2448.824425528769 499.26313468796315 2454.972432584873 500.00317257434597Q2461.1204396409767 500.7716734563589 2467.4676876664907 502.365601211645Q2473.8149356920057 503.95952896693115 2479.792164774328 506.57812456490115Q2485.7409308610204 509.16825716724105 2490.3803991487284 512.9822985816756Q2495.048330432066 516.7678770004802 2497.8377040038167 521.9196792095299Q2500.655540571198 527.0714814185797 2500.655540571198 533.7887483872854L2500.655540571198 533.7887483872854Q2500.655540571198 537.6881787886103 2499.3462427722125 540.5914043428814Q2498.036944973228 543.4946298971527 2495.90222030097 545.4585765956301Q2493.7390326330815 547.3940602984775 2490.83580707881 548.3902651455313Q2487.9325815245393 549.3864699925851 2484.8301150008574 549.3864699925851L2484.8301150008574 549.3864699925851Q2481.0445365820524 549.3864699925851 2477.74282908896 547.7071532504087Q2474.441121595867 545.9993735126022 2471.9648409760475 542.9822959758105Q2469.5170233518584 539.9936814346493 2468.0654105747226 535.8380840726533Q2466.6137977975877 531.6824867106573 2466.6137977975877 526.6729994797581L2466.6137977975877 526.6729994797581Q2466.6137977975877 522.3750871396117 2465.532203963643 518.1910267819856Q2464.422147134069 513.9785034287295 2461.7750885404694 510.61986994437666Q2459.128029946869 507.2612364600238 2454.7162656242017 505.15497478339574Q2450.3045013015353 503.07717610239774 2443.81493829787 502.877935132987L2443.81493829787 502.877935132987L2442.8187334508157 502.877935132987Q2437.894635206808 503.07717610239774 2433.7390378448117 505.7242346959979Q2429.611903478446 508.37129328959804 2426.5948259416537 512.6692056297445Q2423.6062114004926 516.967117969891 2421.9553576539465 522.3181611483515Q2420.3045039073995 527.669204326812 2420.3045039073995 533.1910254790531L2420.3045039073995 533.1910254790531Q2420.3045039073995 538.0012717405416 2421.7561166845353 542.4984250500988Q2423.207729461671 546.9955783596561 2426.3386589809834 550.6388418003099Q2429.498051495925 554.310568236594 2434.3936867443044 556.8153118520436Q2439.317784988313 559.2915924718632 2446.31968191332 560.0031673626158ZM2613.7105592139906 603.0392167553407L2613.7105592139906 603.0392167553407Q2613.7105592139906 609.9272616978271 2611.3765935723222 615.9044907801499Q2609.0141649350226 621.8532568668427 2605.0578085424377 626.8058181064816Q2601.101452149853 631.7583793461206 2596.063501923323 635.6008837561853Q2590.997088701164 639.4433881662501 2585.560656535813 642.1189097554804Q2580.0957613748315 644.7659683490806 2574.6877922051117 646.160655134956Q2569.279823035391 647.5553419208313 2564.697280738943 647.5553419208313L2564.697280738943 647.5553419208313L2563.672612896259 647.5553419208313Q2559.090070599811 647.4699529339409 2553.9382683907616 646.0468031524354Q2548.786466181712 644.65211636656 2543.720052959553 642.0050577729598Q2538.6821027330234 639.3579991793599 2534.1280234322057 635.458568778035Q2529.573944131388 631.55913837671 2526.0729956688856 626.2934841851397Q2522.572047206382 621.0562929891996 2520.4657855297537 614.4813409986446Q2518.359523853126 607.9348520037195 2518.359523853126 600.0221392185492L2518.359523853126 600.0221392185492Q2518.359523853126 591.9386484595982 2520.8642674685752 585.1644554996321Q2523.3690110840253 578.4187255352963 2527.4107564635005 573.124608348096Q2531.452501842976 567.8020281652657 2536.6043040520253 563.9025977639408Q2541.7845692567053 560.0031673626158 2547.021760452645 557.4130347602759Q2552.2874146442155 554.7944391623059 2557.1261239013347 553.5420673545811Q2561.9932961540826 552.2896955468563 2565.5796336034764 552.2896955468563L2565.5796336034764 552.2896955468563L2566.3765974811195 552.2896955468563Q2572.496141541593 552.488936516267 2578.3879816370254 554.4528832147446Q2584.3082847280884 556.388366917592 2589.5454759240283 559.8039263932051Q2594.8111301155986 563.2194858688181 2599.2513574338955 567.8589541565259Q2603.7200477478227 572.4984224442337 2606.907903258395 578.1056325833651Q2610.1242217645977 583.7128427224966 2611.917390489294 590.0316277523809Q2613.7105592139906 596.3219497866351 2613.7105592139906 603.0392167553407ZM2581.6896891301185 601.4452890000546L2581.6896891301185 601.4452890000546Q2581.6896891301185 598.940545384605 2581.6896891301185 594.5287810619382Q2581.6896891301185 590.1170167392711 2581.348133182557 585.079066512742Q2581.0065772349953 580.0126532905824 2580.0957613748315 574.8039250902725Q2579.1849455146685 569.6236598855926 2577.391776789972 565.4111365323365Q2575.5986080652756 561.1986131790804 2572.752308502264 558.5515545854803Q2569.877545943623 555.9044959918801 2565.5796336034764 555.9044959918801L2565.5796336034764 555.9044959918801Q2557.382290862005 555.9044959918801 2552.628970591777 567.118916270143Q2547.875650321549 578.3048735527759 2547.875650321549 601.0183440656031L2547.875650321549 601.0183440656031Q2547.875650321549 612.3466163263863 2548.8149291773425 620.4301070853373Q2549.7826710287663 628.5420608399183 2551.775080722874 633.7507890402283Q2553.7674904169808 638.9595172405384 2556.9838089231835 641.4073348647278Q2560.1716644337557 643.8551524889172 2564.697280738943 643.8551524889172L2564.697280738943 643.8551524889172L2565.5796336034764 643.8551524889172Q2569.877545943623 643.6559115195064 2572.752308502264 641.1511679040566Q2575.5986080652756 638.646424288607 2577.448702781232 633.4946220795573Q2579.2987974971893 628.3428198705076 2580.2380763529827 620.4301070853373Q2581.2058182044066 612.5458572957971 2581.6896891301185 601.4452890000546ZM2621.6232719991613 641.7488908122889L2621.6232719991613 638.1625533628953L2637.02175263505 638.1625533628953L2639.72573721991 508.7697752284195L2622.1356059205027 508.37129328959804L2622.1356059205027 504.6711038576838L2669.668808622785 505.58191971784737L2666.7655830685144 638.1625533628953L2687.059698952782 638.1625533628953L2687.059698952782 641.7488908122889L2621.6232719991613 641.7488908122889Z " fill="#fff748" transform="matrix(0.32563473598305176,0,0,0.3256347359830517,0,113.49121273132646)"/></g></svg>